:SAMPLES-PER-SECOND 30
:FULLY-SPECIFIED
:DEGREES
524
root  -28.7457 16.3954 -25.4824 -63.4746 -11.4155 -20.3318
Spine  0.348268 -15.5495 7.26968
Spine1  -0.0487964 -21.4783 13.7794
Neck  3.97569e-016 0 -2.38542e-015
Head  -21.2951 6.36029 50.3696
R_Clavicle  1.10852 -0.750525 5.76299
R_UpperArm  66.1427 -65.4352 32.4184
R_Forearm  -8.92616 -3.10024 6.00687
R_Hand  -63.103 23.6039 -153.36
L_Clavicle  -0.212113 7.0209 0.241063
L_UpperArm  -41.1271 22.4881 42.0067
L_Forearm  -35.4362 -7.28093 -8.49752
L_Hand  -0.210653 -3.23396 -11.1634
L_Thigh  8.54659 34.6546 64.385
L_Calf  -17.8102 -5.76138 48.4285
L_Foot  5.82904 11.8942 9.37324
L_Toe0  0.505247 0.0363081 -6.13597
R_Thigh  26.6443 -44.2601 6.69254
R_Calf  -6.33385 8.01756 25.6955
R_Foot  -7.77135 -19.5385 7.67316
R_Toe0  -1.78853 -0.272788 -17.3235
525
root  -27.8556 17.4855 -23.1978 -75.5544 -1.32825 -18.8527
Spine  0.748855 -14.7558 6.20841
Spine1  0.697128 -19.8001 11.6836
Neck  3.97569e-016 0 -2.38542e-015
Head  -24.7006 7.12734 49.9317
R_Clavicle  1.17282 3.24922 5.53199
R_UpperArm  77.3966 -62.6304 24.7987
R_Forearm  22.7611 -4.33737 9.51322
R_Hand  -35.1493 8.28661 -154.045
L_Clavicle  -0.134503 4.18935 0.19284
L_UpperArm  -54.0314 18.9334 35.7407
L_Forearm  -22.491 -15.5744 -18.7894
L_Hand  -0.104722 -4.53936 -12.1838
L_Thigh  7.71004 35.9634 60.0738
L_Calf  -18.2902 -5.51044 48.3716
L_Foot  5.68889 11.954 8.87172
L_Toe0  0.505246 0.0362852 -6.13597
R_Thigh  22.2251 -42.8624 8.42645
R_Calf  -19.9393 7.38508 23.516
R_Foot  6.65034 20.8893 2.90376
R_Toe0  -1.78853 -0.272788 -17.3235
526
root  -26.7366 18.7932 -21.3304 -87.4446 8.02214 -18.8589
Spine  1.11543 -13.3391 6.14271
Spine1  1.28398 -19.4967 9.50573
Neck  3.97569e-016 0 -2.38542e-015
Head  -30.0736 9.82598 48.9727
R_Clavicle  1.0601 7.55551 4.44307
R_UpperArm  87.178 -60.4658 19.0469
R_Forearm  56.2291 -4.09994 11.6324
R_Hand  -5.72185 -4.89262 -151.144
L_Clavicle  -0.0117444 1.13336 -0.19026
L_UpperArm  -59.7077 13.338 27.8288
L_Forearm  -8.53414 -22.725 -28.9348
L_Hand  0.135675 -6.49739 -15.0448
L_Thigh  6.21404 36.9742 54.1116
L_Calf  -18.5529 -5.43058 49.0493
L_Foot  4.96223 11.7677 6.76797
L_Toe0  0.505245 0.0362623 -6.13598
R_Thigh  19.6754 -41.8405 9.69045
R_Calf  -18.6349 6.76195 21.3987
R_Foot  6.75037 20.974 5.07612
R_Toe0  -1.78853 -0.272788 -17.3235
527
root  -25.1623 20.3615 -19.8557 -99.6831 17.2166 -19.1984
Spine  1.10967 -11.3164 6.48765
Spine1  1.43512 -20.1245 6.54322
Neck  3.97569e-016 0 -2.38542e-015
Head  -36.748 12.9877 46.8173
R_Clavicle  1.2353 11.658 5.28839
R_UpperArm  95.3984 -56.6231 15.2942
R_Forearm  75.7422 -4.13304 13.3282
R_Hand  11.8023 -13.6443 -145.547
L_Clavicle  0.357432 -2.58638 -1.79078
L_UpperArm  -54.5631 7.91417 18.2338
L_Forearm  2.23571 -24.761 -32.1926
L_Hand  0.432841 -8.4981 -15.8685
L_Thigh  4.14063 37.7459 48.142
L_Calf  -18.4036 -6.0778 50.11
L_Foot  3.85039 11.5225 3.39747
L_Toe0  0.505244 0.0362393 -6.13598
R_Thigh  18.8841 -41.401 10.6707
R_Calf  -12.8911 6.51438 20.5869
R_Foot  3.66971 12.5051 3.15746
R_Toe0  -1.78853 -0.272788 -17.3235
528
root  -23.5026 22.0444 -18.9479 -112.615 26.2301 -19.3755
Spine  -0.134994 -10.5362 6.95134
Spine1  0.888996 -19.2519 1.90662
Neck  3.97569e-016 0 -2.38542e-015
Head  -40.9778 13.1853 43.642
R_Clavicle  0.518458 15.3506 2.2272
R_UpperArm  101.222 -49.4865 13.1293
R_Forearm  80.9587 -4.85267 14.1862
R_Hand  18.0136 -18.3519 -138.615
L_Clavicle  1.00043 -5.59294 -4.4577
L_UpperArm  -42.9952 5.81172 9.30704
L_Forearm  5.3406 -19.7192 -24.4635
L_Hand  0.224909 -7.25632 -14.1092
L_Thigh  1.98034 39.3803 42.6142
L_Calf  -16.984 -6.798 51.4548
L_Foot  2.02487 9.19639 -0.841517
L_Toe0  0.505243 0.0362163 -6.13598
R_Thigh  15.8841 -40.6907 11.8419
R_Calf  -10.691 6.60255 20.8889
R_Foot  3.61606 12.2535 3.37014
R_Toe0  -1.78853 -0.272788 -17.3235
529
root  -21.9394 23.7556 -18.6634 -126.069 35.0078 -18.9141
Spine  -2.8415 -11.9517 7.80528
Spine1  -0.61542 -14.4717 -3.51452
Neck  3.97569e-016 0 -2.38542e-015
Head  -38.9495 8.83333 39.1975
R_Clavicle  0.843789 19.6257 3.3538
R_UpperArm  103.84 -34.9691 8.0186
R_Forearm  77.8773 -7.15945 15.0465
R_Hand  18.2662 -19.9913 -132.331
L_Clavicle  1.43344 -4.47157 -7.33266
L_UpperArm  -35.8485 4.1588 2.64548
L_Forearm  -2.61255 -7.47639 -8.73011
L_Hand  0.034239 -5.73771 -13.8418
L_Thigh  -0.47219 42.1322 36.9048
L_Calf  -15.1296 -7.18323 52.4431
L_Foot  0.0553426 4.78037 -4.63602
L_Toe0  0.505242 0.0361933 -6.13598
R_Thigh  13.1975 -40.1161 12.4241
R_Calf  -11.0522 7.0318 22.3356
R_Foot  4.31737 14.2674 5.27045
R_Toe0  -1.78853 -0.272788 -17.3235
530
root  -20.6527 25.5033 -18.9399 -139.6 44.2342 -17.861
Spine  -5.80911 -13.6106 8.62205
Spine1  -2.95913 -7.53434 -6.98395
Neck  3.97569e-016 0 -2.38542e-015
Head  -30.4268 3.27798 31.8006
R_Clavicle  1.4564 20.7126 4.98168
R_UpperArm  95.8204 -14.6587 2.25031
R_Forearm  72.0073 -9.79909 17.839
R_Hand  13.4095 -17.1321 -129.676
L_Clavicle  1.19186 0.151442 -8.57318
L_UpperArm  -34.0937 -3.77147 -3.23911
L_Forearm  -15.3729 8.16765 9.55116
L_Hand  -0.0138316 -5.37675 -15.836
L_Thigh  -3.43028 45.3156 30.9978
L_Calf  -16.142 -7.95434 53.093
L_Foot  -1.11272 2.50821 -7.8141
L_Toe0  0.50524 0.0361702 -6.13598
R_Thigh  11.7739 -39.9957 13.233
R_Calf  -7.52349 7.73876 24.7685
R_Foot  4.1513 13.7833 5.18342
R_Toe0  -1.78853 -0.272788 -17.3235
531
root  -19.8867 27.2141 -19.4723 -153.166 54.2014 -17.3806
Spine  -7.72571 -12.7042 9.05561
Spine1  -5.15426 -2.97705 -8.18204
Neck  3.97569e-016 0 -2.38542e-015
Head  -18.9441 0.991375 22.2657
R_Clavicle  1.36841 20.6109 4.76226
R_UpperArm  82.9363 2.76477 -4.60701
R_Forearm  62.5462 -8.46861 18.8965
R_Hand  -2.62052 -5.91956 -128.77
L_Clavicle  0.781591 3.97552 -8.32434
L_UpperArm  -31.4451 -17.3099 -9.10772
L_Forearm  -27.4417 21.9086 27.558
L_Hand  -0.222402 -3.81132 -13.6003
L_Thigh  -6.50397 47.6514 25.8436
L_Calf  -19.3896 -9.27202 53.6154
L_Foot  -1.81356 2.80045 -11.2962
L_Toe0  0.505239 0.0361471 -6.13598
R_Thigh  9.52158 -41.0379 15.7578
R_Calf  -2.61134 8.25626 26.5782
R_Foot  3.5404 12.0596 4.67271
R_Toe0  -1.78853 -0.272788 -17.3235
532
root  -19.7406 28.7695 -20.1038 -167.025 64.0177 -18.3439
Spine  -7.92072 -8.45737 10.6678
Spine1  -6.23729 -2.74563 -10.1975
Neck  3.97569e-016 0 -2.38542e-015
Head  -9.14807 1.68077 14.0391
R_Clavicle  0.342277 24.5528 1.93633
R_UpperArm  76.9585 12.5386 -11.6215
R_Forearm  60.1169 -6.39146 19.1328
R_Hand  -12.9161 1.78826 -127.679
L_Clavicle  0.708093 4.40829 -8.06488
L_UpperArm  -25.217 -30.9296 -15.8719
L_Forearm  -36.6055 31.9712 43.5401
L_Hand  -0.327699 -0.0723163 -8.024
L_Thigh  -9.01007 47.8413 21.6287
L_Calf  -20.3321 -10.4003 53.8216
L_Foot  -2.63371 1.5586 -14.3913
L_Toe0  0.505238 0.0361241 -6.13599
R_Thigh  6.4541 -44.3059 19.7768
R_Calf  1.50762 8.54626 27.5984
R_Foot  2.79704 9.95414 5.65399
R_Toe0  -1.78853 -0.272788 -17.3235
